<svg width="30" height="30" viewBox="0 0 30 30" fill="none" xmlns="http://www.w3.org/2000/svg">
<path d="M18.5899 5.70087L18.4435 20.8668L17.0616 18.9867C16.9708 18.8633 16.8567 18.7589 16.7256 18.6796C16.5945 18.6003 16.4491 18.5475 16.2976 18.5244C16.1462 18.5013 15.9917 18.5082 15.8429 18.5448C15.6941 18.5814 15.554 18.6469 15.4305 18.7376C15.2846 18.8449 15.1657 18.9847 15.0831 19.1459C15.0005 19.3071 14.9566 19.4853 14.9549 19.6664C14.9525 19.9189 15.032 20.1653 15.1815 20.3687L18.6363 25.0689C18.7437 25.2126 18.883 25.3296 19.0431 25.4108C19.2031 25.4919 19.3798 25.535 19.5593 25.5368C19.7388 25.5385 19.9162 25.4988 20.0778 25.4208C20.2395 25.3427 20.3809 25.2284 20.4912 25.0868L24.0345 20.6174C24.2271 20.3749 24.3155 20.0657 24.2802 19.7579C24.2449 19.4502 24.0887 19.169 23.8461 18.9764C23.6035 18.7837 23.2944 18.6954 22.9866 18.7307C22.6788 18.766 22.3977 18.9221 22.2051 19.1647L20.7758 20.9827L20.9231 5.72339C20.9261 5.41399 20.806 5.11607 20.5894 4.89517C20.3727 4.67428 20.0771 4.54851 19.7677 4.54552C19.4583 4.54253 19.1604 4.66258 18.9395 4.87925C18.7186 5.09592 18.5929 5.39147 18.5899 5.70087ZM10.2434 24.2878L10.3898 9.12188L11.7717 11.002C11.955 11.2513 12.2298 11.4176 12.5356 11.4643C12.8415 11.511 13.1534 11.4343 13.4027 11.2511C13.652 11.0678 13.8183 10.793 13.8651 10.4871C13.9118 10.1813 13.8351 9.86937 13.6518 9.62006L10.197 4.91982C10.0895 4.77609 9.95031 4.65909 9.79021 4.57794C9.63012 4.49679 9.45346 4.45367 9.27398 4.45194C9.09451 4.4502 8.91705 4.48991 8.75542 4.56795C8.59379 4.646 8.45235 4.76028 8.3421 4.90192L4.79879 9.37126C4.63879 9.57337 4.55023 9.82277 4.54694 10.0805C4.54564 10.2587 4.58518 10.4348 4.6625 10.5953C4.73983 10.7558 4.85289 10.8965 4.99302 11.0065C5.23439 11.1983 5.54187 11.2868 5.84827 11.2526C6.15466 11.2184 6.43506 11.0643 6.62819 10.824L8.05747 9.00603L7.91018 24.2653C7.90719 24.5747 8.02724 24.8726 8.24391 25.0935C8.46058 25.3144 8.75612 25.4402 9.06553 25.4432C9.37493 25.4462 9.67285 25.3261 9.89375 25.1095C10.1146 24.8928 10.2404 24.5972 10.2434 24.2878Z" fill="white"/>
</svg>
